<?xml version="1.0" standalone="no"?>
<!DOCTYPE svg PUBLIC "-//W3C//DTD SVG 20010904//EN"
 "http://www.w3.org/TR/2001/REC-SVG-20010904/DTD/svg10.dtd">
<svg version="1.0" xmlns="http://www.w3.org/2000/svg"
 width="500.000000pt" height="500.000000pt" viewBox="0 0 500.000000 500.000000"
 preserveAspectRatio="xMidYMid meet">

<g transform="translate(0.000000,500.000000) scale(0.100000,-0.100000)"
fill="#000000" stroke="none">
<path d="M2353 3627 c-28 -29 -96 -97 -152 -151 -56 -54 -101 -102 -101 -105
0 -4 16 -22 35 -41 l35 -34 28 29 c16 17 86 90 157 163 71 72 124 132 118 132
-6 0 -57 -45 -112 -100 -55 -55 -104 -100 -108 -100 -4 0 34 42 85 93 50 51
92 98 92 104 0 26 -24 24 -50 -6 -16 -17 -32 -31 -37 -31 -4 0 12 20 36 44 24
24 39 46 33 50 -5 3 -32 -18 -59 -47z"/>
<path d="M1285 2136 c-67 -30 -95 -76 -95 -157 0 -61 21 -104 63 -129 66 -41
177 -13 217 53 28 45 27 140 0 185 -34 56 -119 78 -185 48z m119 -25 c47 -40
59 -136 27 -208 -22 -47 -45 -63 -94 -63 -47 0 -82 30 -97 84 -31 110 36 227
120 209 14 -3 33 -13 44 -22z"/>
<path d="M3332 2005 c-78 -181 -76 -175 -64 -175 5 0 17 20 26 45 l18 45 73 0
73 0 18 -45 c13 -36 22 -45 40 -45 28 0 35 -23 -56 185 -29 66 -55 123 -59
127 -3 4 -35 -58 -69 -137z m88 5 c16 -40 30 -74 30 -76 0 -2 -29 -4 -65 -4
-36 0 -65 3 -65 6 0 11 62 155 66 151 2 -2 17 -36 34 -77z"/>
<path d="M3952 2134 c-64 -44 -52 -92 38 -149 38 -24 71 -53 75 -64 6 -21 -9
-60 -29 -73 -16 -11 -70 -10 -100 2 -14 5 -26 6 -26 1 0 -22 113 -29 154 -10
13 7 30 24 36 40 21 49 6 75 -69 123 -37 24 -71 52 -75 61 -22 58 9 81 81 60
26 -8 49 -15 51 -15 1 0 2 6 2 14 0 27 -103 35 -138 10z"/>
<path d="M900 1984 l0 -157 73 5 c85 5 127 23 145 60 17 37 -1 73 -46 91 l-36
14 32 17 c36 19 49 54 32 86 -16 29 -50 40 -131 40 l-69 0 0 -156z m149 119
c38 -47 0 -103 -70 -103 l-39 0 0 58 c0 32 3 62 7 65 3 4 23 7 44 7 29 0 42
-6 58 -27z m-16 -124 c35 -16 53 -53 41 -86 -11 -32 -70 -59 -109 -49 -24 6
-25 10 -25 76 l0 70 35 0 c19 0 45 -5 58 -11z"/>
<path d="M1567 2043 c-4 -54 -6 -125 -5 -158 l1 -60 7 65 c4 36 8 96 9 133 0
38 5 66 9 63 5 -3 33 -59 62 -126 30 -66 56 -120 59 -120 3 0 31 57 61 126 30
69 57 127 61 130 4 2 10 -57 14 -131 7 -123 9 -135 26 -135 22 0 23 16 12 198
-6 112 -6 113 -30 110 -21 -3 -32 -20 -72 -111 -26 -60 -51 -109 -57 -109 -5
0 -31 50 -59 111 -41 90 -54 111 -71 111 -19 0 -21 -7 -27 -97z"/>
<path d="M1990 1984 l0 -157 74 5 c81 5 120 23 138 64 15 33 -4 73 -41 87
l-29 11 29 27 c37 34 38 71 3 98 -22 17 -41 21 -100 21 l-74 0 0 -156z m140
126 c26 -26 25 -51 -1 -84 -16 -20 -29 -26 -60 -26 l-39 0 0 58 c0 32 3 62 7
65 14 15 74 6 93 -13z m-10 -135 c30 -15 45 -47 38 -82 -4 -25 -72 -57 -103
-49 -24 6 -25 10 -25 76 l0 70 30 0 c17 0 44 -7 60 -15z"/>
<path d="M2290 1985 l0 -155 95 0 c80 0 95 3 95 16 0 12 -7 14 -27 10 -16 -3
-48 -6 -73 -8 l-45 -3 -3 73 -3 72 58 2 58 1 -55 6 -55 6 0 60 0 60 73 -1 c39
-1 72 2 72 7 0 5 -43 9 -95 9 l-95 0 0 -155z"/>
<path d="M2560 1985 c0 -148 1 -155 20 -155 18 0 20 7 20 75 0 73 1 75 24 75
20 0 36 -16 77 -75 40 -57 58 -75 76 -75 13 0 23 2 23 4 0 2 -27 37 -59 77
l-60 73 38 17 c58 26 70 83 25 118 -22 17 -41 21 -105 21 l-79 0 0 -155z m149
119 c42 -53 12 -106 -60 -108 l-44 -1 -3 54 c-4 73 0 81 47 81 31 0 44 -6 60
-26z"/>
<path d="M2877 2043 c-4 -54 -6 -125 -5 -158 l1 -60 7 65 c4 36 8 96 9 133 0
38 5 66 9 63 5 -3 33 -59 62 -126 30 -66 56 -120 59 -120 3 0 31 57 61 126 30
69 57 127 61 130 4 2 10 -57 14 -131 7 -123 9 -135 26 -135 22 0 23 16 12 198
-6 112 -6 113 -30 110 -21 -3 -32 -20 -72 -111 -26 -60 -51 -109 -57 -109 -5
0 -31 50 -59 111 -41 90 -54 111 -71 111 -19 0 -21 -7 -27 -97z"/>
<path d="M3590 1985 c0 -192 18 -212 22 -24 l3 131 103 -131 c57 -72 105 -131
108 -131 2 0 4 70 4 155 0 181 -18 215 -22 43 l-3 -113 -88 113 c-123 157
-127 155 -127 -43z"/>
</g>
</svg>
